<svg version="1.0" xmlns="http://www.w3.org/2000/svg"
 width="500.000000pt" height="500.000000pt" viewBox="0 0 500.000000 500.000000"
 preserveAspectRatio="xMidYMid meet">

<g transform="translate(0.000000,500.000000) scale(0.100000,-0.100000)"
fill="#000000" stroke="none">
<path d="M2265 4165 c-184 -25 -329 -71 -510 -161 -166 -82 -291 -172 -425
-303 l-105 -103 -62 6 c-97 10 -251 52 -329 91 -158 78 -250 201 -274 370 -7
49 -7 50 -18 22 -19 -46 -16 -193 6 -275 50 -187 206 -327 438 -394 44 -13 80
-26 82 -31 1 -4 -25 -62 -57 -130 -122 -249 -162 -423 -169 -729 -5 -237 14
-442 54 -570 4 -14 0 -18 -18 -18 -39 0 -209 -47 -285 -79 -300 -124 -457
-380 -399 -652 29 -132 37 -139 53 -44 38 229 200 392 463 468 81 24 279 62
285 55 1 -2 15 -28 30 -58 73 -147 229 -348 358 -463 419 -375 984 -513 1522
-372 424 111 796 397 1014 781 28 49 54 95 59 103 7 12 21 13 96 2 242 -34
426 -109 537 -220 74 -74 126 -166 140 -245 4 -28 12 -69 17 -91 l8 -40 14 25
c29 52 9 306 -32 404 -89 212 -300 355 -616 418 -61 12 -63 14 -58 38 50 224
58 275 63 425 7 194 -6 321 -52 500 -43 167 -80 267 -143 389 -30 59 -45 99
-38 101 6 2 53 15 104 29 143 40 235 89 318 171 82 81 132 172 141 256 5 51
-10 210 -23 244 -11 27 -24 16 -24 -19 0 -51 -33 -147 -68 -197 -98 -144 -248
-219 -522 -264 l-85 -13 -92 93 c-368 373 -885 551 -1398 480z m526 -254 c146
-31 222 -57 355 -121 121 -57 210 -111 294 -179 l44 -36 -29 -6 c-17 -4 -115
-7 -220 -8 -203 -1 -343 -17 -437 -50 -119 -41 -233 -136 -277 -230 l-25 -52
-25 53 c-33 70 -124 158 -203 197 -123 60 -195 72 -498 81 -151 4 -277 8 -279
9 -12 3 43 48 128 105 184 124 424 218 638 250 137 21 404 14 534 -13z m-1416
-562 c50 -6 217 -11 373 -10 326 1 416 -10 527 -63 89 -43 151 -98 195 -174
19 -34 37 -61 40 -62 3 0 21 28 40 61 44 76 103 130 194 174 109 53 202 65
504 64 141 -1 303 2 358 6 l101 7 66 -99 c168 -252 261 -541 260 -808 -1 -128
-20 -237 -69 -393 l-27 -84 -51 6 c-158 18 -343 26 -606 24 -336 -1 -385 5
-525 72 -98 47 -179 123 -231 216 l-37 67 -28 -55 c-61 -121 -189 -224 -333
-267 -97 -30 -261 -42 -471 -34 -115 4 -247 1 -365 -7 -277 -21 -250 -25 -272
40 -29 85 -46 174 -59 319 -29 318 47 612 232 891 44 66 83 120 87 120 4 0 48
-5 97 -11z m1158 -1292 c65 -131 208 -238 378 -282 114 -30 178 -35 528 -45
199 -5 348 -13 353 -18 7 -7 -5 -32 -35 -74 -242 -337 -588 -557 -1001 -635
-139 -26 -428 -23 -566 6 -150 31 -275 75 -406 141 -156 79 -259 155 -394 290
-108 108 -221 252 -207 266 11 11 211 23 397 24 331 1 517 27 645 92 123 62
204 137 252 235 14 29 27 53 28 53 1 0 14 -24 28 -53z"/>
</g>
</svg>
